# Blender v2.78 (sub 0) OBJ File: 'Sniper.blend'
# www.blender.org
mtllib Sniper.mtl
o Cube
v 0.200000 1.000000 -0.200000
v 0.200000 0.960982 -0.196157
v 0.200000 0.923463 -0.184776
v 0.200000 0.888886 -0.166294
v 0.200000 0.858579 -0.141421
v 0.200000 0.833706 -0.111114
v 0.200000 0.815224 -0.076537
v 0.200000 0.803843 -0.039018
v 0.200000 0.800000 -0.000000
v 0.200000 0.803843 0.039018
v 0.200000 0.815224 0.076537
v 0.200000 0.833706 0.111114
v 0.200000 0.858579 0.141421
v 0.200000 0.888886 0.166294
v 0.200000 0.923463 0.184776
v 0.200000 0.960982 0.196157
v 0.200000 1.000000 0.200000
v 0.200000 1.039018 0.196157
v 0.200000 1.076537 0.184776
v 0.200000 1.111114 0.166294
v 0.200000 1.141421 0.141421
v 0.200000 1.166294 0.111114
v 0.200000 1.184776 0.076537
v 0.200000 1.196157 0.039018
v 0.200000 1.200000 -0.000000
v 0.200000 1.196157 -0.039018
v 0.200000 1.184776 -0.076537
v 0.200000 1.166294 -0.111114
v 0.200000 1.141421 -0.141422
v 0.200000 1.111114 -0.166294
v 0.200000 1.076536 -0.184776
v 0.200000 1.039018 -0.196157
v 0.500000 0.000000 -1.000000
v 0.500000 0.000000 1.000000
v -0.500000 0.000000 1.000000
v -0.500000 0.000000 -1.000000
v 0.500000 2.000000 -0.999999
v 0.500000 2.000000 1.000001
v -0.500000 2.000000 1.000000
v -0.500000 2.000000 -1.000000
v 0.178199 1.622829 0.614806
v 0.149986 1.949530 0.266456
v 0.330023 1.983179 -1.033179
v 0.193944 2.211931 -0.928200
v 0.251617 1.568613 -1.343098
v 0.500000 0.833706 0.111114
v 0.500000 1.000000 -0.200000
v 0.500000 1.039018 -0.196157
v 0.500000 1.076536 -0.184776
v 0.500000 1.184776 0.076537
v 0.500000 1.166294 0.111114
v 0.500000 1.196157 0.039018
v 0.500000 1.141421 0.141421
v 0.500000 1.039018 0.196157
v 0.500000 1.000000 0.200000
v 0.500000 1.076537 0.184776
v 0.500000 0.803843 -0.039018
v 0.500000 0.888886 -0.166294
v 0.500000 0.800000 -0.000000
v 0.500000 0.815224 -0.076537
v 0.500000 0.960982 0.196157
v 0.500000 1.141421 -0.141422
v 0.500000 1.111114 -0.166294
v 0.500000 1.166294 -0.111114
v 0.500000 0.803843 0.039018
v 0.500000 0.888886 0.166294
v 0.500000 0.858579 0.141421
v 0.500000 0.815224 0.076537
v 0.500000 1.200000 -0.000000
v 0.500000 1.111114 0.166294
v 0.500000 1.196157 -0.039018
v 0.500000 0.858579 -0.141421
v 0.500000 0.923463 0.184776
v 0.500000 0.833706 -0.111114
v 0.500000 1.184776 -0.076537
v 0.500000 0.923463 -0.184776
v 0.500000 0.960982 -0.196157
vn 0.0000 0.0980 0.9952
vn 0.0000 0.2903 0.9569
vn -0.0000 0.4714 0.8819
vn -0.0000 0.6344 0.7730
vn 0.0000 0.7730 0.6344
vn 0.0000 0.8819 0.4714
vn 0.0000 0.9569 0.2903
vn 0.0000 0.9952 0.0980
vn -0.0000 0.9952 -0.0980
vn -0.0000 0.9569 -0.2903
vn -0.0000 0.8819 -0.4714
vn 0.0000 0.7730 -0.6344
vn -0.0000 0.6344 -0.7730
vn -0.0000 0.4714 -0.8819
vn 0.0000 0.2903 -0.9569
vn -0.0000 0.0980 -0.9952
vn 0.0000 -0.0980 -0.9952
vn 0.0000 -0.2903 -0.9569
vn 0.0000 -0.4714 -0.8819
vn 0.0000 -0.6344 -0.7730
vn 0.0000 -0.7730 -0.6344
vn 0.0000 -0.8819 -0.4714
vn 0.0000 -0.9569 -0.2903
vn 0.0000 -0.9952 -0.0980
vn 0.0000 -0.9952 0.0980
vn 0.0000 -0.9569 0.2903
vn 0.0000 -0.8819 0.4714
vn 0.0000 -0.7730 0.6344
vn 0.0000 -0.6344 0.7730
vn 0.0000 -0.4714 0.8819
vn 0.0000 -0.2903 0.9569
vn 0.0000 -0.0980 0.9952
vn 1.0000 -0.0000 0.0000
vn 0.0000 -1.0000 0.0000
vn 0.0000 1.0000 0.0000
vn -0.0000 -0.0000 1.0000
vn -1.0000 -0.0000 -0.0000
vn 0.0000 0.0000 -1.0000
usemtl Material
s off
f 1//1 2//1 77//1 47//1
f 2//2 3//2 76//2 77//2
f 3//3 4//3 58//3 76//3
f 4//4 5//4 72//4 58//4
f 5//5 6//5 74//5 72//5
f 6//6 7//6 60//6 74//6
f 7//7 8//7 57//7 60//7
f 8//8 9//8 59//8 57//8
f 9//9 10//9 65//9 59//9
f 10//10 11//10 68//10 65//10
f 11//11 12//11 46//11 68//11
f 12//12 13//12 67//12 46//12
f 13//13 14//13 66//13 67//13
f 14//14 15//14 73//14 66//14
f 15//15 16//15 61//15 73//15
f 16//16 17//16 55//16 61//16
f 17//17 18//17 54//17 55//17
f 18//18 19//18 56//18 54//18
f 19//19 20//19 70//19 56//19
f 20//20 21//20 53//20 70//20
f 21//21 22//21 51//21 53//21
f 22//22 23//22 50//22 51//22
f 23//23 24//23 52//23 50//23
f 24//24 25//24 69//24 52//24
f 25//25 26//25 71//25 69//25
f 26//26 27//26 75//26 71//26
f 27//27 28//27 64//27 75//27
f 28//28 29//28 62//28 64//28
f 29//29 30//29 63//29 62//29
f 30//30 31//30 49//30 63//30
f 31//31 32//31 48//31 49//31
f 32//32 1//32 47//32 48//32
f 1//33 32//33 31//33 30//33 29//33 28//33 27//33 26//33 25//33 24//33 23//33 22//33 21//33 20//33 19//33 18//33 17//33 16//33 15//33 14//33 13//33 12//33 11//33 10//33 9//33 8//33 7//33 6//33 5//33 4//33 3//33 2//33
f 33//34 34//34 35//34 36//34
f 37//35 40//35 39//35 38//35
f 33//33 37//33 47//33 77//33 76//33 58//33 72//33 74//33 60//33 57//33 59//33 65//33 68//33 46//33 67//33 66//33 73//33 61//33 55//33 34//33
f 34//36 38//36 39//36 35//36
f 35//37 39//37 40//37 36//37
f 37//38 33//38 36//38 40//38
f 34//33 55//33 54//33 56//33 70//33 53//33 51//33 50//33 52//33 69//33 71//33 75//33 64//33 62//33 63//33 49//33 48//33 47//33 37//33 38//33
l 37 41
l 41 42
l 43 44
l 44 45
o Cylinder.001
v 0.500000 1.000000 -0.500000
v 1.500000 1.000000 -0.500000
v 0.500000 0.902455 -0.490393
v 1.500000 0.902455 -0.490393
v 0.500000 0.808658 -0.461940
v 1.500000 0.808658 -0.461940
v 0.500000 0.722215 -0.415735
v 1.500000 0.722215 -0.415735
v 0.500000 0.646447 -0.353553
v 1.500000 0.646447 -0.353553
v 0.500000 0.584265 -0.277785
v 1.500000 0.584265 -0.277785
v 0.500000 0.538060 -0.191342
v 1.500000 0.538060 -0.191342
v 0.500000 0.509607 -0.097545
v 1.500000 0.509607 -0.097545
v 0.500000 0.500000 -0.000000
v 1.500000 0.500000 -0.000000
v 0.500000 0.509607 0.097545
v 1.500000 0.509607 0.097545
v 0.500000 0.538060 0.191342
v 1.500000 0.538060 0.191342
v 0.500000 0.584265 0.277785
v 1.500000 0.584265 0.277785
v 0.500000 0.646447 0.353553
v 1.500000 0.646447 0.353553
v 0.500000 0.722215 0.415735
v 1.500000 0.722215 0.415735
v 0.500000 0.808658 0.461940
v 1.500000 0.808658 0.461940
v 0.500000 0.902455 0.490393
v 1.500000 0.902455 0.490393
v 0.500000 1.000000 0.500000
v 1.500000 1.000000 0.500000
v 0.500000 1.097545 0.490393
v 1.500000 1.097545 0.490393
v 0.500000 1.191342 0.461940
v 1.500000 1.191342 0.461940
v 0.500000 1.277785 0.415735
v 1.500000 1.277785 0.415735
v 0.500000 1.353554 0.353553
v 1.500000 1.353554 0.353553
v 0.500000 1.415735 0.277785
v 1.500000 1.415735 0.277785
v 0.500000 1.461940 0.191341
v 1.500000 1.461940 0.191341
v 0.500000 1.490393 0.097545
v 1.500000 1.490393 0.097545
v 0.500000 1.500000 -0.000000
v 1.500000 1.500000 -0.000000
v 0.500000 1.490392 -0.097546
v 1.500000 1.490393 -0.097546
v 0.500000 1.461940 -0.191342
v 1.500000 1.461940 -0.191342
v 0.500000 1.415734 -0.277786
v 1.500000 1.415735 -0.277786
v 0.500000 1.353553 -0.353554
v 1.500000 1.353553 -0.353554
v 0.500000 1.277785 -0.415735
v 1.500000 1.277785 -0.415735
v 0.500000 1.191341 -0.461940
v 1.500000 1.191341 -0.461940
v 0.500000 1.097544 -0.490393
v 1.500000 1.097544 -0.490393
v 1.500000 0.833706 0.111114
v 0.500000 0.833706 0.111114
v 1.500000 1.000000 -0.200000
v 0.500000 1.000000 -0.200000
v 1.500000 1.039018 -0.196157
v 0.500000 1.039018 -0.196157
v 1.500000 1.076536 -0.184776
v 0.500000 1.076536 -0.184776
v 1.500000 1.184776 0.076537
v 0.500000 1.184776 0.076537
v 1.500000 1.166294 0.111114
v 0.500000 1.166294 0.111114
v 1.500000 1.196157 0.039018
v 0.500000 1.196157 0.039018
v 1.500000 1.141421 0.141421
v 0.500000 1.141421 0.141421
v 1.500000 1.039018 0.196157
v 0.500000 1.039018 0.196157
v 1.500000 1.000000 0.200000
v 0.500000 1.000000 0.200000
v 1.500000 1.076537 0.184776
v 0.500000 1.076537 0.184776
v 1.500000 0.803843 -0.039018
v 0.500000 0.803843 -0.039018
v 1.500000 0.888886 -0.166294
v 0.500000 0.888886 -0.166294
v 1.500000 0.800000 -0.000000
v 0.500000 0.800000 -0.000000
v 1.500000 0.815224 -0.076537
v 0.500000 0.815224 -0.076537
v 1.500000 0.960982 0.196157
v 0.500000 0.960982 0.196157
v 1.500000 1.141421 -0.141422
v 0.500000 1.141421 -0.141422
v 1.500000 1.111114 -0.166294
v 0.500000 1.111114 -0.166294
v 1.500000 1.166294 -0.111114
v 0.500000 1.166294 -0.111114
v 1.500000 0.803843 0.039018
v 0.500000 0.803843 0.039018
v 1.500000 0.888886 0.166294
v 0.500000 0.888886 0.166294
v 1.500000 0.858579 0.141421
v 0.500000 0.858579 0.141421
v 1.500000 0.815224 0.076537
v 0.500000 0.815224 0.076537
v 1.500000 1.200000 -0.000000
v 0.500000 1.200000 -0.000000
v 1.500000 1.111114 0.166294
v 0.500000 1.111114 0.166294
v 1.500000 1.196157 -0.039018
v 0.500000 1.196157 -0.039018
v 1.500000 0.858579 -0.141421
v 0.500000 0.858579 -0.141421
v 1.500000 0.923463 0.184776
v 0.500000 0.923463 0.184776
v 1.500000 0.833706 -0.111114
v 0.500000 0.833706 -0.111114
v 1.500000 1.184776 -0.076537
v 0.500000 1.184776 -0.076537
v 1.500000 0.923463 -0.184776
v 0.500000 0.923463 -0.184776
v 1.500000 0.960982 -0.196157
v 0.500000 0.960982 -0.196157
vn 0.0000 -0.0980 -0.9952
vn 0.0000 -0.2903 -0.9569
vn 0.0000 -0.4714 -0.8819
vn 0.0000 -0.6344 -0.7730
vn 0.0000 -0.7730 -0.6344
vn 0.0000 -0.8819 -0.4714
vn 0.0000 -0.9569 -0.2903
vn 0.0000 -0.9952 -0.0980
vn 0.0000 -0.9952 0.0980
vn 0.0000 -0.9569 0.2903
vn 0.0000 -0.8819 0.4714
vn 0.0000 -0.7730 0.6344
vn 0.0000 -0.6344 0.7730
vn 0.0000 -0.4714 0.8819
vn 0.0000 -0.2903 0.9569
vn 0.0000 -0.0980 0.9952
vn 0.0000 0.0980 0.9952
vn -0.0000 0.2903 0.9569
vn -0.0000 0.4714 0.8819
vn -0.0000 0.6344 0.7730
vn -0.0000 0.7730 0.6344
vn 0.0000 0.8819 0.4714
vn 0.0000 0.9569 0.2903
vn 0.0000 0.9952 0.0980
vn -0.0000 0.9952 -0.0980
vn -0.0000 0.9569 -0.2903
vn -0.0000 0.8819 -0.4714
vn -0.0000 0.7730 -0.6344
vn 0.0000 0.6344 -0.7730
vn 0.0000 0.4714 -0.8819
vn 1.0000 -0.0000 -0.0000
vn 0.0000 0.2903 -0.9569
vn 0.0000 0.0980 -0.9952
vn -1.0000 0.0000 -0.0000
usemtl None
s off
f 78//39 79//39 81//39 80//39
f 80//40 81//40 83//40 82//40
f 82//41 83//41 85//41 84//41
f 84//42 85//42 87//42 86//42
f 86//43 87//43 89//43 88//43
f 88//44 89//44 91//44 90//44
f 90//45 91//45 93//45 92//45
f 92//46 93//46 95//46 94//46
f 94//47 95//47 97//47 96//47
f 96//48 97//48 99//48 98//48
f 98//49 99//49 101//49 100//49
f 100//50 101//50 103//50 102//50
f 102//51 103//51 105//51 104//51
f 104//52 105//52 107//52 106//52
f 106//53 107//53 109//53 108//53
f 108//54 109//54 111//54 110//54
f 110//55 111//55 113//55 112//55
f 112//56 113//56 115//56 114//56
f 114//57 115//57 117//57 116//57
f 116//58 117//58 119//58 118//58
f 118//59 119//59 121//59 120//59
f 120//60 121//60 123//60 122//60
f 122//61 123//61 125//61 124//61
f 124//62 125//62 127//62 126//62
f 126//63 127//63 129//63 128//63
f 128//64 129//64 131//64 130//64
f 130//65 131//65 133//65 132//65
f 132//66 133//66 135//66 134//66
f 134//67 135//67 137//67 136//67
f 136//68 137//68 139//68 138//68
f 81//69 79//69 141//69 139//69 137//69 135//69 133//69 131//69 129//69 127//69 188//69 192//69 200//69 178//69 174//69 176//69 148//69 146//69 144//69 204//69 202//69 166//69 194//69 198//69 170//69 164//69 168//69 95//69 93//69 91//69 89//69 87//69 85//69 83//69
f 138//70 139//70 141//70 140//70
f 140//71 141//71 79//71 78//71
f 78//72 80//72 82//72 84//72 86//72 88//72 90//72 92//72 94//72 169//72 165//72 171//72 199//72 195//72 167//72 203//72 205//72 145//72 147//72 149//72 177//72 175//72 179//72 201//72 193//72 189//72 126//72 128//72 130//72 132//72 134//72 136//72 138//72 140//72
f 181//63 180//63 168//63 169//63
f 185//66 184//66 142//66 143//66
f 143//65 142//65 186//65 187//65
f 193//47 192//47 188//47 189//47
f 165//61 164//61 170//61 171//61
f 169//62 168//62 164//62 165//62
f 199//59 198//59 194//59 195//59
f 145//54 144//54 146//54 147//54
f 159//39 158//39 160//39 161//39
f 179//49 178//49 200//49 201//49
f 161//71 160//71 172//71 173//71
f 147//53 146//53 148//53 149//53
f 195//58 194//58 166//58 167//58
f 191//41 190//41 162//41 163//41
f 95//69 168//69 180//69 186//69 142//69 184//69 182//69 196//69 172//69 160//69 158//69 162//69 190//69 156//69 152//69 150//69 154//69 188//69 127//69 125//69 123//69 121//69 119//69 117//69 115//69 113//69 111//69 109//69 107//69 105//69 103//69 101//69 99//69 97//69
f 167//57 166//57 202//57 203//57
f 183//67 182//67 184//67 185//67
f 177//51 176//51 174//51 175//51
f 201//48 200//48 192//48 193//48
f 197//68 196//68 182//68 183//68
f 157//42 156//42 190//42 191//42
f 151//44 150//44 152//44 153//44
f 205//55 204//55 144//55 145//55
f 171//60 170//60 198//60 199//60
f 189//46 188//46 154//46 155//46
f 187//64 186//64 180//64 181//64
f 163//40 162//40 158//40 159//40
f 149//52 148//52 176//52 177//52
f 203//56 202//56 204//56 205//56
f 173//70 172//70 196//70 197//70
f 155//45 154//45 150//45 151//45
f 175//50 174//50 178//50 179//50
f 126//72 189//72 155//72 151//72 153//72 157//72 191//72 163//72 159//72 161//72 173//72 197//72 183//72 185//72 143//72 187//72 181//72 169//72 94//72 96//72 98//72 100//72 102//72 104//72 106//72 108//72 110//72 112//72 114//72 116//72 118//72 120//72 122//72 124//72
f 153//43 152//43 156//43 157//43
